<?xml version="1.0" standalone="no"?><!DOCTYPE svg PUBLIC "-//W3C//DTD SVG 1.1//EN" "http://www.w3.org/Graphics/SVG/1.1/DTD/svg11.dtd"><svg t="1505543260396" class="icon" style="" viewBox="0 0 1024 1024" version="1.1" xmlns="http://www.w3.org/2000/svg" p-id="2405" xmlns:xlink="http://www.w3.org/1999/xlink" width="200" height="200"><defs><style type="text/css"></style></defs><path d="M655.4 143.6c0-24 19.4-44.1 45.2-44.1 25.8 0 45.2 18.9 45.2 44.1v103.3c0 24-19.4 44.1-45.2 44.1-25.9 0-45.2-20.1-45.2-44.1V143.6z m-373.3 0c0-24 19.4-44.1 45.2-44.1 25.8 0 45.2 18.9 45.2 44.1v103.3c0 24-19.4 44.1-45.2 44.1-25.8 0-45.2-20.1-45.2-44.1V143.6zM812.8 399v368.6c0 47.2-46.1 46.1-46.1 46.1H259.9s-46.1 0.3-46.1-46.1V399c0-46.8 46.1-46.1 46.1-46.1h506.8c49 0.1 46.1 46.1 46.1 46.1z m-46.3-265.5v112.1s0 63-64.7 63c-72.2 0-72.2-63-72.2-63V133.5H397v112.1s0 63-70.4 63c-66.5 0-66.5-63-66.5-63V133.5h-59.4c-56.9 0-102.1 45.4-102.1 99.5v573.3c0 55.4 46.5 99.5 102.1 99.5h625.2c56.9 0 102.1-45.3 102.1-99.5V233.1c0-55.4-46.5-99.5-102.1-99.5l-59.4-0.1z" p-id="2406"></path><path d="M279.5 509c0-31.3 25.8-56.7 58.1-56.7 32.1 0 58.1 25.2 58.1 56.7 0 31.3-25.8 56.7-58.1 56.7-32.1 0-58.1-25.1-58.1-56.7z m0 163.8c0-31.3 25.8-56.7 58.1-56.7 15.4 0 30.2 5.9 41.2 16.6 10.9 10.6 17 25.1 17 40.2 0 31.3-25.8 56.7-58.1 56.7-32.2-0.1-58.2-25.3-58.2-56.8zM460.4 509c0-31.3 25.8-56.7 58.1-56.7 32.1 0 58.1 25.2 58.1 56.7 0 31.3-25.8 56.7-58.1 56.7-32.1 0-58.1-25.1-58.1-56.7z m0 163.8c0-31.3 25.8-56.7 58.1-56.7 15.4 0 30.3 5.9 41.2 16.6 10.9 10.6 17 25.1 17 40.2 0 31.3-25.8 56.7-58.1 56.7-32.2-0.1-58.2-25.3-58.2-56.8zM641.2 509c0-31.3 25.8-56.7 58.1-56.7 32.1 0 58.1 25.2 58.1 56.7 0 31.3-25.8 56.7-58.1 56.7-32.1 0-58.1-25.1-58.1-56.7z m0 163.8c0-31.3 25.8-56.7 58.1-56.7 15.4 0 30.2 5.9 41.2 16.6 10.9 10.6 17 25.1 17 40.2 0 31.3-25.8 56.7-58.1 56.7-32.2-0.1-58.2-25.3-58.2-56.8z" p-id="2407"></path></svg>